Coordinates
version=1
nRows=27
nColumns=38
inDegrees=no

Units are S.I. units (second, meters, Newtons, ...)
If the header above contains a line with 'inDegrees', this indicates whether rotational values are in degrees (yes) or radians (no).

endheader
time	pelvis_tilt	pelvis_list	pelvis_rotation	pelvis_tx	pelvis_ty	pelvis_tz	hip_flexion_r	hip_adduction_r	hip_rotation_r	knee_angle_r	ankle_angle_r	subtalar_angle_r	mtp_angle_r	hip_flexion_l	hip_adduction_l	hip_rotation_l	knee_angle_l	ankle_angle_l	subtalar_angle_l	mtp_angle_l	lumbar_extension	lumbar_bending	lumbar_rotation	arm_flex_r	arm_add_r	arm_rot_r	elbow_flex_r	pro_sup_r	wrist_flex_r	wrist_dev_r	arm_flex_l	arm_add_l	arm_rot_l	elbow_flex_l	pro_sup_l	wrist_flex_l	wrist_dev_l
5	2.94067	1.27578	-1.27221	0.628518	1.747	0.95887	-0.14099	-0.0208411	-0.00241097	0.983384	-0.376822	0	0	-0.155591	-0.0415728	-0.0975501	0.255637	-0.319307	0	0	-0.385213	0.132659	0.178545	0.106561	-0.511496	-0.238964	1.77393	1.5708	0	0	0.694907	-0.211638	0.725383	1.38905	1.5708	0	0
5.01	2.93005	1.27855	-1.26317	0.627837	1.74928	0.959188	-0.130579	-0.0197053	-0.00174348	0.967879	-0.369455	0	0	-0.157887	-0.042561	-0.0959727	0.249343	-0.319064	0	0	-0.385809	0.134633	0.180187	0.108898	-0.513058	-0.240519	1.77318	1.5708	0	0	0.696065	-0.209226	0.724366	1.38877	1.5708	0	0
5.02	2.93249	1.29618	-1.26673	0.620958	1.75043	0.959489	-0.135676	-0.00801012	0.0892008	0.89157	-0.343337	0	0	-0.149165	-0.0207623	-0.0710213	0.230445	-0.327275	0	0	-0.372981	0.141436	0.175041	0.114684	-0.543529	-0.22622	1.76975	1.5708	0	0	0.686665	-0.194649	0.712944	1.38148	1.5708	0	0
5.03	2.87466	1.29264	-1.21905	0.626167	1.75256	0.960102	-0.119074	-0.00601887	0.0233459	0.879502	-0.345369	0	0	-0.150352	-0.0472429	-0.0895898	0.233076	-0.325823	0	0	-0.377785	0.146343	0.186664	0.121909	-0.533641	-0.222339	1.76489	1.5708	0	0	0.691846	-0.202706	0.713912	1.38549	1.5708	0	0
5.04	2.86786	1.29359	-1.21436	0.625765	1.75465	0.960179	-0.111214	-0.00781313	0.0187804	0.862474	-0.343015	0	0	-0.152834	-0.04803	-0.0910493	0.231009	-0.324485	0	0	-0.379721	0.148644	0.187282	0.128109	-0.525875	-0.226708	1.76327	1.5708	0	0	0.693172	-0.202571	0.712021	1.38575	1.5708	0	0
5.05	2.8586	1.29597	-1.20663	0.625278	1.75696	0.960239	-0.104908	-0.00952602	0.0128383	0.837615	-0.336336	0	0	-0.154388	-0.0486502	-0.0895504	0.227039	-0.322077	0	0	-0.379663	0.149971	0.187773	0.131649	-0.527144	-0.226212	1.76167	1.5708	0	0	0.693011	-0.2011	0.709028	1.38622	1.5708	0	0
5.06	2.85043	1.29775	-1.20024	0.624828	1.75919	0.960303	-0.0992164	-0.0114486	0.00604634	0.812998	-0.32917	0	0	-0.155934	-0.0490563	-0.0881262	0.224346	-0.320176	0	0	-0.38025	0.151257	0.188346	0.135719	-0.529085	-0.224367	1.76013	1.5708	0	0	0.693166	-0.199802	0.706134	1.38662	1.5708	0	0
5.07	2.84312	1.29888	-1.1948	0.624512	1.76133	0.960412	-0.0950239	-0.0130816	-0.00141982	0.785973	-0.320293	0	0	-0.157781	-0.049582	-0.0866268	0.222166	-0.318053	0	0	-0.379557	0.151352	0.186287	0.143756	-0.541635	-0.208236	1.75315	1.5708	0	0	0.692776	-0.199923	0.702648	1.38555	1.5708	0	0
5.08	2.83743	1.29878	-1.19113	0.624229	1.76334	0.960501	-0.0917074	-0.0148379	-0.00983725	0.759476	-0.314572	0	0	-0.160242	-0.050322	-0.086525	0.221606	-0.316242	0	0	-0.381775	0.154567	0.1855	0.152274	-0.532589	-0.210356	1.75026	1.5708	0	0	0.692758	-0.201064	0.698907	1.38604	1.5708	0	0
5.09	2.83252	1.2994	-1.18548	0.623826	1.76561	0.960608	-0.0906387	-0.0171782	-0.0243606	0.726747	-0.306354	0	0	-0.161723	-0.0511004	-0.0834939	0.22141	-0.31358	0	0	-0.381657	0.156714	0.180878	0.160328	-0.533042	-0.202901	1.7452	1.5708	0	0	0.690871	-0.202479	0.694046	1.38679	1.5708	0	0
5.1	2.82627	1.30362	-1.17607	0.623324	1.76828	0.960482	-0.0864384	-0.0211378	-0.0455276	0.69432	-0.299662	0	0	-0.159015	-0.0512251	-0.0778158	0.222072	-0.311427	0	0	-0.377341	0.15866	0.174654	0.164334	-0.532341	-0.198221	1.74272	1.5708	0	0	0.687675	-0.204211	0.689918	1.38883	1.5708	0	0
5.11	2.82058	1.30577	-1.16974	0.623017	1.77058	0.960449	-0.0840435	-0.0229272	-0.0626326	0.660157	-0.294753	0	0	-0.158244	-0.0516387	-0.0750521	0.223216	-0.309413	0	0	-0.375939	0.160616	0.170771	0.170519	-0.532396	-0.192375	1.73975	1.5708	0	0	0.685484	-0.20576	0.685292	1.39054	1.5708	0	0
5.12	2.81659	1.30656	-1.16652	0.622952	1.77267	0.960509	-0.0837921	-0.0228708	-0.0762366	0.623387	-0.291624	0	0	-0.158926	-0.0521754	-0.0741689	0.22446	-0.307255	0	0	-0.375696	0.160357	0.168013	0.177975	-0.543423	-0.176814	1.73436	1.5708	0	0	0.684544	-0.206683	0.681381	1.3907	1.5708	0	0
5.13	2.81197	1.30784	-1.16377	0.622891	1.77479	0.960412	-0.0809418	-0.0234335	-0.0875584	0.593724	-0.289222	0	0	-0.159378	-0.0523954	-0.0747141	0.22546	-0.305491	0	0	-0.377824	0.162218	0.171346	0.178369	-0.53421	-0.187671	1.73815	1.5708	0	0	0.685405	-0.205438	0.679736	1.39212	1.5708	0	0
5.14	2.80828	1.30804	-1.16083	0.622771	1.77692	0.960485	-0.082299	-0.0232022	-0.0968794	0.558727	-0.288235	0	0	-0.160899	-0.0529608	-0.0740202	0.22646	-0.302689	0	0	-0.380578	0.162654	0.17659	0.174341	-0.536009	-0.19493	1.74281	1.5708	0	0	0.68895	-0.201292	0.681911	1.39025	1.5708	0	0
5.15	2.80602	1.30803	-1.1593	0.62275	1.77902	0.960548	-0.0834936	-0.0226207	-0.102769	0.527535	-0.288342	0	0	-0.162683	-0.0533891	-0.0735921	0.227466	-0.300455	0	0	-0.383503	0.162614	0.182164	0.169869	-0.537806	-0.202453	1.74755	1.5708	0	0	0.693323	-0.197258	0.68528	1.38786	1.5708	0	0
5.16	2.80504	1.30709	-1.15885	0.622863	1.78106	0.960682	-0.0861367	-0.0211875	-0.106257	0.497836	-0.288578	0	0	-0.165403	-0.0541015	-0.0734846	0.228665	-0.29859	0	0	-0.387169	0.162523	0.188064	0.165148	-0.539111	-0.210451	1.75222	1.5708	0	0	0.698436	-0.193193	0.689394	1.38481	1.5708	0	0
5.17	2.8056	1.30548	-1.15996	0.623085	1.78305	0.960855	-0.0896881	-0.019623	-0.107908	0.470403	-0.288548	0	0	-0.169034	-0.0548553	-0.0733671	0.229722	-0.29665	0	0	-0.391531	0.16201	0.194466	0.160186	-0.540043	-0.219271	1.75689	1.5708	0	0	0.704089	-0.18894	0.693861	1.38133	1.5708	0	0
5.18	2.80574	1.30575	-1.15923	0.623204	1.78522	0.960901	-0.0915124	-0.0186377	-0.110779	0.446179	-0.287855	0	0	-0.170542	-0.0551076	-0.0716212	0.231026	-0.294753	0	0	-0.394085	0.161469	0.199943	0.153301	-0.54047	-0.229781	1.76325	1.5708	0	0	0.708688	-0.184602	0.697916	1.37894	1.5708	0	0
5.19	2.80633	1.30597	-1.15841	0.623334	1.78737	0.960956	-0.0937705	-0.0173097	-0.112147	0.423727	-0.287249	0	0	-0.171981	-0.0554627	-0.0691302	0.232399	-0.292568	0	0	-0.396084	0.160911	0.205297	0.145962	-0.540962	-0.240419	1.76892	1.5708	0	0	0.714032	-0.179873	0.703224	1.37495	1.5708	0	0
5.2	2.80588	1.30426	-1.15804	0.623654	1.78919	0.96117	-0.0969226	-0.01459	-0.108748	0.404308	-0.287209	0	0	-0.175073	-0.0567892	-0.068507	0.233775	-0.290649	0	0	-0.401152	0.160436	0.213413	0.138474	-0.54203	-0.252707	1.7754	1.5708	0	0	0.720909	-0.17402	0.708909	1.37063	1.5708	0	0
5.21	2.80505	1.29954	-1.15904	0.624138	1.79069	0.961558	-0.102864	-0.0100104	-0.100149	0.386295	-0.288141	0	0	-0.181081	-0.0594654	-0.0709228	0.235107	-0.288546	0	0	-0.408014	0.161303	0.220246	0.137687	-0.543101	-0.258049	1.77703	1.5708	0	0	0.727388	-0.170062	0.712781	1.36522	1.5708	0	0
5.22	2.80383	1.29061	-1.16439	0.625046	1.79143	0.962267	-0.110908	-0.00341617	-0.0815864	0.372241	-0.290572	0	0	-0.191357	-0.0635393	-0.0788445	0.236313	-0.287269	0	0	-0.422221	0.162094	0.232194	0.140238	-0.545942	-0.262694	1.77972	1.5708	0	0	0.735143	-0.165131	0.713965	1.36102	1.5708	0	0
5.23	2.8094	1.28545	-1.16968	0.625495	1.79297	0.962618	-0.11918	-0.000534896	-0.0754215	0.35769	-0.294005	0	0	-0.198168	-0.0652426	-0.0813098	0.238147	-0.28563	0	0	-0.426871	0.163637	0.229696	0.149529	-0.545462	-0.254448	1.77397	1.5708	0	0	0.736678	-0.166528	0.711578	1.35715	1.5708	0	0
5.24	2.81746	1.2859	-1.17242	0.625528	1.79523	0.962539	-0.123461	-0.00132151	-0.0799293	0.345776	-0.296475	0	0	-0.199228	-0.0645039	-0.0782665	0.240691	-0.283977	0	0	-0.423664	0.164458	0.220698	0.156018	-0.54309	-0.24576	1.7682	1.5708	0	0	0.734525	-0.16935	0.708207	1.35473	1.5708	0	0
5.25	2.82145	1.28494	-1.17534	0.62584	1.79703	0.962604	-0.126493	-0.000651561	-0.0769102	0.338753	-0.299456	0	0	-0.201431	-0.0649392	-0.0797379	0.243258	-0.282535	0	0	-0.425222	0.163888	0.217906	0.160826	-0.5421	-0.241355	1.76559	1.5708	0	0	0.733541	-0.169856	0.703707	1.35461	1.5708	0	0
5.26	2.83007	1.28668	-1.178	0.625864	1.7995	0.962398	-0.12929	-0.0025833	-0.0828389	0.332329	-0.302797	0	0	-0.201386	-0.0640493	-0.0769193	0.245981	-0.280576	0	0	-0.422081	0.162514	0.209855	0.162604	-0.538827	-0.237922	1.76315	1.5708	0	0	0.730506	-0.171244	0.699807	1.35508	1.5708	0	0
